<?xml version="1.0" encoding="UTF-8"?>
<svg width="2400" height="1260" viewBox="0 0 2400 1260" version="1.1" xmlns="http://www.w3.org/2000/svg" xmlns:xlink="http://www.w3.org/1999/xlink">
 <path d="M0,0 l2400,0 l0,1260 l-2400,0 Z" fill="rgb(255,255,255)" transform="matrix(1,0,0,-1,0,1260)"/>
 <path d="M324.34,755.6 l20.76,-8 l0,58.8 l-20.76,12 Z M324.34,755.6" fill="rgb(0,0,0)" fill-opacity="0.5" stroke-linecap="round" stroke-linejoin="round" transform="matrix(1,0,0,-1,0,1260)"/>
 <path d="M96,96 l0,1068" fill="none" stroke="rgb(0,0,0)" stroke-linecap="round" stroke-linejoin="round" stroke-width="1.5" transform="matrix(1,0,0,-1,0,1260)"/>
 <path d="M96,1164 l290.62,-280" fill="none" stroke="rgb(0,0,0)" stroke-linecap="round" stroke-linejoin="round" stroke-width="1.5" transform="matrix(1,0,0,-1,0,1260)"/>
 <path d="M386.62,884 l0,-508" fill="none" stroke="rgb(0,0,0)" stroke-linecap="round" stroke-linejoin="round" stroke-width="1.5" transform="matrix(1,0,0,-1,0,1260)"/>
 <path d="M386.62,376 l-290.62,-280" fill="none" stroke="rgb(0,0,0)" stroke-linecap="round" stroke-linejoin="round" stroke-width="1.5" transform="matrix(1,0,0,-1,0,1260)"/>
 <path d="M116.76,116 l0,1028" fill="none" stroke="rgb(0,0,0)" stroke-linecap="round" stroke-linejoin="round" stroke-width="1.5" transform="matrix(1,0,0,-1,0,1260)"/>
 <path d="M137.52,136 l0,988" fill="none" stroke="rgb(0,0,0)" stroke-linecap="round" stroke-linejoin="round" stroke-width="1.5" transform="matrix(1,0,0,-1,0,1260)"/>
 <path d="M158.28,156 l0,948" fill="none" stroke="rgb(0,0,0)" stroke-linecap="round" stroke-linejoin="round" stroke-width="1.5" transform="matrix(1,0,0,-1,0,1260)"/>
 <path d="M179.03,176 l0,908" fill="none" stroke="rgb(0,0,0)" stroke-linecap="round" stroke-linejoin="round" stroke-width="1.5" transform="matrix(1,0,0,-1,0,1260)"/>
 <path d="M199.79,196 l0,868" fill="none" stroke="rgb(0,0,0)" stroke-linecap="round" stroke-linejoin="round" stroke-width="1.5" transform="matrix(1,0,0,-1,0,1260)"/>
 <path d="M220.55,216 l0,828" fill="none" stroke="rgb(0,0,0)" stroke-linecap="round" stroke-linejoin="round" stroke-width="1.5" transform="matrix(1,0,0,-1,0,1260)"/>
 <path d="M241.31,236 l0,788" fill="none" stroke="rgb(0,0,0)" stroke-linecap="round" stroke-linejoin="round" stroke-width="1.5" transform="matrix(1,0,0,-1,0,1260)"/>
 <path d="M262.07,256 l0,748" fill="none" stroke="rgb(0,0,0)" stroke-linecap="round" stroke-linejoin="round" stroke-width="1.5" transform="matrix(1,0,0,-1,0,1260)"/>
 <path d="M282.83,276 l0,708" fill="none" stroke="rgb(0,0,0)" stroke-linecap="round" stroke-linejoin="round" stroke-width="1.5" transform="matrix(1,0,0,-1,0,1260)"/>
 <path d="M303.58,296 l0,668" fill="none" stroke="rgb(0,0,0)" stroke-linecap="round" stroke-linejoin="round" stroke-width="1.5" transform="matrix(1,0,0,-1,0,1260)"/>
 <path d="M324.34,316 l0,628" fill="none" stroke="rgb(0,0,0)" stroke-linecap="round" stroke-linejoin="round" stroke-width="1.5" transform="matrix(1,0,0,-1,0,1260)"/>
 <path d="M345.1,336 l0,588" fill="none" stroke="rgb(0,0,0)" stroke-linecap="round" stroke-linejoin="round" stroke-width="1.5" transform="matrix(1,0,0,-1,0,1260)"/>
 <path d="M365.86,356 l0,548" fill="none" stroke="rgb(0,0,0)" stroke-linecap="round" stroke-linejoin="round" stroke-width="1.5" transform="matrix(1,0,0,-1,0,1260)"/>
 <path d="M96,202.8 l290.62,224" fill="none" stroke="rgb(0,0,0)" stroke-linecap="round" stroke-linejoin="round" stroke-width="1.5" transform="matrix(1,0,0,-1,0,1260)"/>
 <path d="M96,309.6 l290.62,168" fill="none" stroke="rgb(0,0,0)" stroke-linecap="round" stroke-linejoin="round" stroke-width="1.5" transform="matrix(1,0,0,-1,0,1260)"/>
 <path d="M96,416.4 l290.62,112" fill="none" stroke="rgb(0,0,0)" stroke-linecap="round" stroke-linejoin="round" stroke-width="1.5" transform="matrix(1,0,0,-1,0,1260)"/>
 <path d="M96,523.2 l290.62,56" fill="none" stroke="rgb(0,0,0)" stroke-linecap="round" stroke-linejoin="round" stroke-width="1.5" transform="matrix(1,0,0,-1,0,1260)"/>
 <path d="M96,630 l290.62,0" fill="none" stroke="rgb(0,0,0)" stroke-linecap="round" stroke-linejoin="round" stroke-width="1.5" transform="matrix(1,0,0,-1,0,1260)"/>
 <path d="M96,736.8 l290.62,-56" fill="none" stroke="rgb(0,0,0)" stroke-linecap="round" stroke-linejoin="round" stroke-width="1.5" transform="matrix(1,0,0,-1,0,1260)"/>
 <path d="M96,843.6 l290.62,-112" fill="none" stroke="rgb(0,0,0)" stroke-linecap="round" stroke-linejoin="round" stroke-width="1.5" transform="matrix(1,0,0,-1,0,1260)"/>
 <path d="M96,950.4 l290.62,-168" fill="none" stroke="rgb(0,0,0)" stroke-linecap="round" stroke-linejoin="round" stroke-width="1.5" transform="matrix(1,0,0,-1,0,1260)"/>
 <path d="M96,1057.2 l290.62,-224" fill="none" stroke="rgb(0,0,0)" stroke-linecap="round" stroke-linejoin="round" stroke-width="1.5" transform="matrix(1,0,0,-1,0,1260)"/>
 <path d="M551.67,472.4 l16.72,8 l0,74.8 l-16.72,-4 Z M551.67,472.4" fill="rgb(0,0,0)" fill-opacity="0.5" stroke-linecap="round" stroke-linejoin="round" transform="matrix(1,0,0,-1,0,1260)"/>
 <path d="M434.62,96 l0,1068" fill="none" stroke="rgb(0,0,0)" stroke-linecap="round" stroke-linejoin="round" stroke-width="1.5" transform="matrix(1,0,0,-1,0,1260)"/>
 <path d="M434.62,1164 l234.11,-280" fill="none" stroke="rgb(0,0,0)" stroke-linecap="round" stroke-linejoin="round" stroke-width="1.5" transform="matrix(1,0,0,-1,0,1260)"/>
 <path d="M668.73,884 l0,-508" fill="none" stroke="rgb(0,0,0)" stroke-linecap="round" stroke-linejoin="round" stroke-width="1.5" transform="matrix(1,0,0,-1,0,1260)"/>
 <path d="M668.73,376 l-234.11,-280" fill="none" stroke="rgb(0,0,0)" stroke-linecap="round" stroke-linejoin="round" stroke-width="1.5" transform="matrix(1,0,0,-1,0,1260)"/>
 <path d="M451.34,116 l0,1028" fill="none" stroke="rgb(0,0,0)" stroke-linecap="round" stroke-linejoin="round" stroke-width="1.5" transform="matrix(1,0,0,-1,0,1260)"/>
 <path d="M468.06,136 l0,988" fill="none" stroke="rgb(0,0,0)" stroke-linecap="round" stroke-linejoin="round" stroke-width="1.5" transform="matrix(1,0,0,-1,0,1260)"/>
 <path d="M484.78,156 l0,948" fill="none" stroke="rgb(0,0,0)" stroke-linecap="round" stroke-linejoin="round" stroke-width="1.5" transform="matrix(1,0,0,-1,0,1260)"/>
 <path d="M501.51,176 l0,908" fill="none" stroke="rgb(0,0,0)" stroke-linecap="round" stroke-linejoin="round" stroke-width="1.5" transform="matrix(1,0,0,-1,0,1260)"/>
 <path d="M518.23,196 l0,868" fill="none" stroke="rgb(0,0,0)" stroke-linecap="round" stroke-linejoin="round" stroke-width="1.5" transform="matrix(1,0,0,-1,0,1260)"/>
 <path d="M534.95,216 l0,828" fill="none" stroke="rgb(0,0,0)" stroke-linecap="round" stroke-linejoin="round" stroke-width="1.5" transform="matrix(1,0,0,-1,0,1260)"/>
 <path d="M551.67,236 l0,788" fill="none" stroke="rgb(0,0,0)" stroke-linecap="round" stroke-linejoin="round" stroke-width="1.5" transform="matrix(1,0,0,-1,0,1260)"/>
 <path d="M568.39,256 l0,748" fill="none" stroke="rgb(0,0,0)" stroke-linecap="round" stroke-linejoin="round" stroke-width="1.5" transform="matrix(1,0,0,-1,0,1260)"/>
 <path d="M585.12,276 l0,708" fill="none" stroke="rgb(0,0,0)" stroke-linecap="round" stroke-linejoin="round" stroke-width="1.5" transform="matrix(1,0,0,-1,0,1260)"/>
 <path d="M601.84,296 l0,668" fill="none" stroke="rgb(0,0,0)" stroke-linecap="round" stroke-linejoin="round" stroke-width="1.5" transform="matrix(1,0,0,-1,0,1260)"/>
 <path d="M618.56,316 l0,628" fill="none" stroke="rgb(0,0,0)" stroke-linecap="round" stroke-linejoin="round" stroke-width="1.5" transform="matrix(1,0,0,-1,0,1260)"/>
 <path d="M635.28,336 l0,588" fill="none" stroke="rgb(0,0,0)" stroke-linecap="round" stroke-linejoin="round" stroke-width="1.5" transform="matrix(1,0,0,-1,0,1260)"/>
 <path d="M652.01,356 l0,548" fill="none" stroke="rgb(0,0,0)" stroke-linecap="round" stroke-linejoin="round" stroke-width="1.5" transform="matrix(1,0,0,-1,0,1260)"/>
 <path d="M434.62,202.8 l234.11,224" fill="none" stroke="rgb(0,0,0)" stroke-linecap="round" stroke-linejoin="round" stroke-width="1.5" transform="matrix(1,0,0,-1,0,1260)"/>
 <path d="M434.62,309.6 l234.11,168" fill="none" stroke="rgb(0,0,0)" stroke-linecap="round" stroke-linejoin="round" stroke-width="1.5" transform="matrix(1,0,0,-1,0,1260)"/>
 <path d="M434.62,416.4 l234.11,112" fill="none" stroke="rgb(0,0,0)" stroke-linecap="round" stroke-linejoin="round" stroke-width="1.5" transform="matrix(1,0,0,-1,0,1260)"/>
 <path d="M434.62,523.2 l234.11,56" fill="none" stroke="rgb(0,0,0)" stroke-linecap="round" stroke-linejoin="round" stroke-width="1.5" transform="matrix(1,0,0,-1,0,1260)"/>
 <path d="M434.62,630 l234.11,0" fill="none" stroke="rgb(0,0,0)" stroke-linecap="round" stroke-linejoin="round" stroke-width="1.5" transform="matrix(1,0,0,-1,0,1260)"/>
 <path d="M434.62,736.8 l234.11,-56" fill="none" stroke="rgb(0,0,0)" stroke-linecap="round" stroke-linejoin="round" stroke-width="1.5" transform="matrix(1,0,0,-1,0,1260)"/>
 <path d="M434.62,843.6 l234.11,-112" fill="none" stroke="rgb(0,0,0)" stroke-linecap="round" stroke-linejoin="round" stroke-width="1.5" transform="matrix(1,0,0,-1,0,1260)"/>
 <path d="M434.62,950.4 l234.11,-168" fill="none" stroke="rgb(0,0,0)" stroke-linecap="round" stroke-linejoin="round" stroke-width="1.5" transform="matrix(1,0,0,-1,0,1260)"/>
 <path d="M434.62,1057.2 l234.11,-224" fill="none" stroke="rgb(0,0,0)" stroke-linecap="round" stroke-linejoin="round" stroke-width="1.5" transform="matrix(1,0,0,-1,0,1260)"/>
 <path d="M729.41,938.4 l12.69,-12 l0,98.8 l-12.69,16 Z M729.41,938.4" fill="rgb(0,0,0)" fill-opacity="0.5" stroke-linecap="round" stroke-linejoin="round" transform="matrix(1,0,0,-1,0,1260)"/>
 <path d="M716.73,96 l0,1068" fill="none" stroke="rgb(0,0,0)" stroke-linecap="round" stroke-linejoin="round" stroke-width="1.5" transform="matrix(1,0,0,-1,0,1260)"/>
 <path d="M716.73,1164 l177.6,-280" fill="none" stroke="rgb(0,0,0)" stroke-linecap="round" stroke-linejoin="round" stroke-width="1.5" transform="matrix(1,0,0,-1,0,1260)"/>
 <path d="M894.33,884 l0,-508" fill="none" stroke="rgb(0,0,0)" stroke-linecap="round" stroke-linejoin="round" stroke-width="1.5" transform="matrix(1,0,0,-1,0,1260)"/>
 <path d="M894.33,376 l-177.6,-280" fill="none" stroke="rgb(0,0,0)" stroke-linecap="round" stroke-linejoin="round" stroke-width="1.5" transform="matrix(1,0,0,-1,0,1260)"/>
 <path d="M729.41,116 l0,1028" fill="none" stroke="rgb(0,0,0)" stroke-linecap="round" stroke-linejoin="round" stroke-width="1.5" transform="matrix(1,0,0,-1,0,1260)"/>
 <path d="M742.1,136 l0,988" fill="none" stroke="rgb(0,0,0)" stroke-linecap="round" stroke-linejoin="round" stroke-width="1.5" transform="matrix(1,0,0,-1,0,1260)"/>
 <path d="M754.78,156 l0,948" fill="none" stroke="rgb(0,0,0)" stroke-linecap="round" stroke-linejoin="round" stroke-width="1.5" transform="matrix(1,0,0,-1,0,1260)"/>
 <path d="M767.47,176 l0,908" fill="none" stroke="rgb(0,0,0)" stroke-linecap="round" stroke-linejoin="round" stroke-width="1.5" transform="matrix(1,0,0,-1,0,1260)"/>
 <path d="M780.16,196 l0,868" fill="none" stroke="rgb(0,0,0)" stroke-linecap="round" stroke-linejoin="round" stroke-width="1.5" transform="matrix(1,0,0,-1,0,1260)"/>
 <path d="M792.84,216 l0,828" fill="none" stroke="rgb(0,0,0)" stroke-linecap="round" stroke-linejoin="round" stroke-width="1.5" transform="matrix(1,0,0,-1,0,1260)"/>
 <path d="M805.53,236 l0,788" fill="none" stroke="rgb(0,0,0)" stroke-linecap="round" stroke-linejoin="round" stroke-width="1.5" transform="matrix(1,0,0,-1,0,1260)"/>
 <path d="M818.21,256 l0,748" fill="none" stroke="rgb(0,0,0)" stroke-linecap="round" stroke-linejoin="round" stroke-width="1.5" transform="matrix(1,0,0,-1,0,1260)"/>
 <path d="M830.9,276 l0,708" fill="none" stroke="rgb(0,0,0)" stroke-linecap="round" stroke-linejoin="round" stroke-width="1.5" transform="matrix(1,0,0,-1,0,1260)"/>
 <path d="M843.58,296 l0,668" fill="none" stroke="rgb(0,0,0)" stroke-linecap="round" stroke-linejoin="round" stroke-width="1.5" transform="matrix(1,0,0,-1,0,1260)"/>
 <path d="M856.27,316 l0,628" fill="none" stroke="rgb(0,0,0)" stroke-linecap="round" stroke-linejoin="round" stroke-width="1.5" transform="matrix(1,0,0,-1,0,1260)"/>
 <path d="M868.96,336 l0,588" fill="none" stroke="rgb(0,0,0)" stroke-linecap="round" stroke-linejoin="round" stroke-width="1.5" transform="matrix(1,0,0,-1,0,1260)"/>
 <path d="M881.64,356 l0,548" fill="none" stroke="rgb(0,0,0)" stroke-linecap="round" stroke-linejoin="round" stroke-width="1.5" transform="matrix(1,0,0,-1,0,1260)"/>
 <path d="M716.73,202.8 l177.6,224" fill="none" stroke="rgb(0,0,0)" stroke-linecap="round" stroke-linejoin="round" stroke-width="1.5" transform="matrix(1,0,0,-1,0,1260)"/>
 <path d="M716.73,309.6 l177.6,168" fill="none" stroke="rgb(0,0,0)" stroke-linecap="round" stroke-linejoin="round" stroke-width="1.5" transform="matrix(1,0,0,-1,0,1260)"/>
 <path d="M716.73,416.4 l177.6,112" fill="none" stroke="rgb(0,0,0)" stroke-linecap="round" stroke-linejoin="round" stroke-width="1.5" transform="matrix(1,0,0,-1,0,1260)"/>
 <path d="M716.73,523.2 l177.6,56" fill="none" stroke="rgb(0,0,0)" stroke-linecap="round" stroke-linejoin="round" stroke-width="1.5" transform="matrix(1,0,0,-1,0,1260)"/>
 <path d="M716.73,630 l177.6,0" fill="none" stroke="rgb(0,0,0)" stroke-linecap="round" stroke-linejoin="round" stroke-width="1.5" transform="matrix(1,0,0,-1,0,1260)"/>
 <path d="M716.73,736.8 l177.6,-56" fill="none" stroke="rgb(0,0,0)" stroke-linecap="round" stroke-linejoin="round" stroke-width="1.5" transform="matrix(1,0,0,-1,0,1260)"/>
 <path d="M716.73,843.6 l177.6,-112" fill="none" stroke="rgb(0,0,0)" stroke-linecap="round" stroke-linejoin="round" stroke-width="1.5" transform="matrix(1,0,0,-1,0,1260)"/>
 <path d="M716.73,950.4 l177.6,-168" fill="none" stroke="rgb(0,0,0)" stroke-linecap="round" stroke-linejoin="round" stroke-width="1.5" transform="matrix(1,0,0,-1,0,1260)"/>
 <path d="M716.73,1057.2 l177.6,-224" fill="none" stroke="rgb(0,0,0)" stroke-linecap="round" stroke-linejoin="round" stroke-width="1.5" transform="matrix(1,0,0,-1,0,1260)"/>
 <path d="M994.22,381.6 l8.65,12 l0,78.8 l-8.65,-8 Z M994.22,381.6" fill="rgb(0,0,0)" fill-opacity="0.5" stroke-linecap="round" stroke-linejoin="round" transform="matrix(1,0,0,-1,0,1260)"/>
 <path d="M942.33,96 l0,1068" fill="none" stroke="rgb(0,0,0)" stroke-linecap="round" stroke-linejoin="round" stroke-width="1.5" transform="matrix(1,0,0,-1,0,1260)"/>
 <path d="M942.33,1164 l121.09,-280" fill="none" stroke="rgb(0,0,0)" stroke-linecap="round" stroke-linejoin="round" stroke-width="1.5" transform="matrix(1,0,0,-1,0,1260)"/>
 <path d="M1063.42,884 l0,-508" fill="none" stroke="rgb(0,0,0)" stroke-linecap="round" stroke-linejoin="round" stroke-width="1.5" transform="matrix(1,0,0,-1,0,1260)"/>
 <path d="M1063.42,376 l-121.09,-280" fill="none" stroke="rgb(0,0,0)" stroke-linecap="round" stroke-linejoin="round" stroke-width="1.5" transform="matrix(1,0,0,-1,0,1260)"/>
 <path d="M950.98,116 l0,1028" fill="none" stroke="rgb(0,0,0)" stroke-linecap="round" stroke-linejoin="round" stroke-width="1.5" transform="matrix(1,0,0,-1,0,1260)"/>
 <path d="M959.63,136 l0,988" fill="none" stroke="rgb(0,0,0)" stroke-linecap="round" stroke-linejoin="round" stroke-width="1.5" transform="matrix(1,0,0,-1,0,1260)"/>
 <path d="M968.28,156 l0,948" fill="none" stroke="rgb(0,0,0)" stroke-linecap="round" stroke-linejoin="round" stroke-width="1.5" transform="matrix(1,0,0,-1,0,1260)"/>
 <path d="M976.92,176 l0,908" fill="none" stroke="rgb(0,0,0)" stroke-linecap="round" stroke-linejoin="round" stroke-width="1.5" transform="matrix(1,0,0,-1,0,1260)"/>
 <path d="M985.57,196 l0,868" fill="none" stroke="rgb(0,0,0)" stroke-linecap="round" stroke-linejoin="round" stroke-width="1.5" transform="matrix(1,0,0,-1,0,1260)"/>
 <path d="M994.22,216 l0,828" fill="none" stroke="rgb(0,0,0)" stroke-linecap="round" stroke-linejoin="round" stroke-width="1.5" transform="matrix(1,0,0,-1,0,1260)"/>
 <path d="M1002.87,236 l0,788" fill="none" stroke="rgb(0,0,0)" stroke-linecap="round" stroke-linejoin="round" stroke-width="1.5" transform="matrix(1,0,0,-1,0,1260)"/>
 <path d="M1011.52,256 l0,748" fill="none" stroke="rgb(0,0,0)" stroke-linecap="round" stroke-linejoin="round" stroke-width="1.5" transform="matrix(1,0,0,-1,0,1260)"/>
 <path d="M1020.17,276 l0,708" fill="none" stroke="rgb(0,0,0)" stroke-linecap="round" stroke-linejoin="round" stroke-width="1.5" transform="matrix(1,0,0,-1,0,1260)"/>
 <path d="M1028.82,296 l0,668" fill="none" stroke="rgb(0,0,0)" stroke-linecap="round" stroke-linejoin="round" stroke-width="1.5" transform="matrix(1,0,0,-1,0,1260)"/>
 <path d="M1037.47,316 l0,628" fill="none" stroke="rgb(0,0,0)" stroke-linecap="round" stroke-linejoin="round" stroke-width="1.5" transform="matrix(1,0,0,-1,0,1260)"/>
 <path d="M1046.12,336 l0,588" fill="none" stroke="rgb(0,0,0)" stroke-linecap="round" stroke-linejoin="round" stroke-width="1.5" transform="matrix(1,0,0,-1,0,1260)"/>
 <path d="M1054.77,356 l0,548" fill="none" stroke="rgb(0,0,0)" stroke-linecap="round" stroke-linejoin="round" stroke-width="1.5" transform="matrix(1,0,0,-1,0,1260)"/>
 <path d="M942.33,202.8 l121.09,224" fill="none" stroke="rgb(0,0,0)" stroke-linecap="round" stroke-linejoin="round" stroke-width="1.5" transform="matrix(1,0,0,-1,0,1260)"/>
 <path d="M942.33,309.6 l121.09,168" fill="none" stroke="rgb(0,0,0)" stroke-linecap="round" stroke-linejoin="round" stroke-width="1.5" transform="matrix(1,0,0,-1,0,1260)"/>
 <path d="M942.33,416.4 l121.09,112" fill="none" stroke="rgb(0,0,0)" stroke-linecap="round" stroke-linejoin="round" stroke-width="1.5" transform="matrix(1,0,0,-1,0,1260)"/>
 <path d="M942.33,523.2 l121.09,56" fill="none" stroke="rgb(0,0,0)" stroke-linecap="round" stroke-linejoin="round" stroke-width="1.5" transform="matrix(1,0,0,-1,0,1260)"/>
 <path d="M942.33,630 l121.09,0" fill="none" stroke="rgb(0,0,0)" stroke-linecap="round" stroke-linejoin="round" stroke-width="1.5" transform="matrix(1,0,0,-1,0,1260)"/>
 <path d="M942.33,736.8 l121.09,-56" fill="none" stroke="rgb(0,0,0)" stroke-linecap="round" stroke-linejoin="round" stroke-width="1.5" transform="matrix(1,0,0,-1,0,1260)"/>
 <path d="M942.33,843.6 l121.09,-112" fill="none" stroke="rgb(0,0,0)" stroke-linecap="round" stroke-linejoin="round" stroke-width="1.5" transform="matrix(1,0,0,-1,0,1260)"/>
 <path d="M942.33,950.4 l121.09,-168" fill="none" stroke="rgb(0,0,0)" stroke-linecap="round" stroke-linejoin="round" stroke-width="1.5" transform="matrix(1,0,0,-1,0,1260)"/>
 <path d="M942.33,1057.2 l121.09,-224" fill="none" stroke="rgb(0,0,0)" stroke-linecap="round" stroke-linejoin="round" stroke-width="1.5" transform="matrix(1,0,0,-1,0,1260)"/>
 <path d="M1166.77,336 l4.61,20 l0,54.8 l-4.61,-16 Z M1166.77,336" fill="rgb(0,0,0)" fill-opacity="0.5" stroke-linecap="round" stroke-linejoin="round" transform="matrix(1,0,0,-1,0,1260)"/>
 <path d="M1111.42,96 l0,1068" fill="none" stroke="rgb(0,0,0)" stroke-linecap="round" stroke-linejoin="round" stroke-width="1.5" transform="matrix(1,0,0,-1,0,1260)"/>
 <path d="M1111.42,1164 l64.58,-280" fill="none" stroke="rgb(0,0,0)" stroke-linecap="round" stroke-linejoin="round" stroke-width="1.5" transform="matrix(1,0,0,-1,0,1260)"/>
 <path d="M1176,884 l0,-508" fill="none" stroke="rgb(0,0,0)" stroke-linecap="round" stroke-linejoin="round" stroke-width="1.5" transform="matrix(1,0,0,-1,0,1260)"/>
 <path d="M1176,376 l-64.58,-280" fill="none" stroke="rgb(0,0,0)" stroke-linecap="round" stroke-linejoin="round" stroke-width="1.5" transform="matrix(1,0,0,-1,0,1260)"/>
 <path d="M1116.03,116 l0,1028" fill="none" stroke="rgb(0,0,0)" stroke-linecap="round" stroke-linejoin="round" stroke-width="1.5" transform="matrix(1,0,0,-1,0,1260)"/>
 <path d="M1120.64,136 l0,988" fill="none" stroke="rgb(0,0,0)" stroke-linecap="round" stroke-linejoin="round" stroke-width="1.5" transform="matrix(1,0,0,-1,0,1260)"/>
 <path d="M1125.26,156 l0,948" fill="none" stroke="rgb(0,0,0)" stroke-linecap="round" stroke-linejoin="round" stroke-width="1.5" transform="matrix(1,0,0,-1,0,1260)"/>
 <path d="M1129.87,176 l0,908" fill="none" stroke="rgb(0,0,0)" stroke-linecap="round" stroke-linejoin="round" stroke-width="1.5" transform="matrix(1,0,0,-1,0,1260)"/>
 <path d="M1134.48,196 l0,868" fill="none" stroke="rgb(0,0,0)" stroke-linecap="round" stroke-linejoin="round" stroke-width="1.5" transform="matrix(1,0,0,-1,0,1260)"/>
 <path d="M1139.1,216 l0,828" fill="none" stroke="rgb(0,0,0)" stroke-linecap="round" stroke-linejoin="round" stroke-width="1.5" transform="matrix(1,0,0,-1,0,1260)"/>
 <path d="M1143.71,236 l0,788" fill="none" stroke="rgb(0,0,0)" stroke-linecap="round" stroke-linejoin="round" stroke-width="1.5" transform="matrix(1,0,0,-1,0,1260)"/>
 <path d="M1148.32,256 l0,748" fill="none" stroke="rgb(0,0,0)" stroke-linecap="round" stroke-linejoin="round" stroke-width="1.5" transform="matrix(1,0,0,-1,0,1260)"/>
 <path d="M1152.94,276 l0,708" fill="none" stroke="rgb(0,0,0)" stroke-linecap="round" stroke-linejoin="round" stroke-width="1.5" transform="matrix(1,0,0,-1,0,1260)"/>
 <path d="M1157.55,296 l0,668" fill="none" stroke="rgb(0,0,0)" stroke-linecap="round" stroke-linejoin="round" stroke-width="1.5" transform="matrix(1,0,0,-1,0,1260)"/>
 <path d="M1162.16,316 l0,628" fill="none" stroke="rgb(0,0,0)" stroke-linecap="round" stroke-linejoin="round" stroke-width="1.5" transform="matrix(1,0,0,-1,0,1260)"/>
 <path d="M1166.77,336 l0,588" fill="none" stroke="rgb(0,0,0)" stroke-linecap="round" stroke-linejoin="round" stroke-width="1.5" transform="matrix(1,0,0,-1,0,1260)"/>
 <path d="M1171.39,356 l0,548" fill="none" stroke="rgb(0,0,0)" stroke-linecap="round" stroke-linejoin="round" stroke-width="1.5" transform="matrix(1,0,0,-1,0,1260)"/>
 <path d="M1111.42,202.8 l64.58,224" fill="none" stroke="rgb(0,0,0)" stroke-linecap="round" stroke-linejoin="round" stroke-width="1.5" transform="matrix(1,0,0,-1,0,1260)"/>
 <path d="M1111.42,309.6 l64.58,168" fill="none" stroke="rgb(0,0,0)" stroke-linecap="round" stroke-linejoin="round" stroke-width="1.5" transform="matrix(1,0,0,-1,0,1260)"/>
 <path d="M1111.42,416.4 l64.58,112" fill="none" stroke="rgb(0,0,0)" stroke-linecap="round" stroke-linejoin="round" stroke-width="1.5" transform="matrix(1,0,0,-1,0,1260)"/>
 <path d="M1111.42,523.2 l64.58,56" fill="none" stroke="rgb(0,0,0)" stroke-linecap="round" stroke-linejoin="round" stroke-width="1.5" transform="matrix(1,0,0,-1,0,1260)"/>
 <path d="M1111.42,630 l64.58,0" fill="none" stroke="rgb(0,0,0)" stroke-linecap="round" stroke-linejoin="round" stroke-width="1.5" transform="matrix(1,0,0,-1,0,1260)"/>
 <path d="M1111.42,736.8 l64.58,-56" fill="none" stroke="rgb(0,0,0)" stroke-linecap="round" stroke-linejoin="round" stroke-width="1.5" transform="matrix(1,0,0,-1,0,1260)"/>
 <path d="M1111.42,843.6 l64.58,-112" fill="none" stroke="rgb(0,0,0)" stroke-linecap="round" stroke-linejoin="round" stroke-width="1.5" transform="matrix(1,0,0,-1,0,1260)"/>
 <path d="M1111.42,950.4 l64.58,-168" fill="none" stroke="rgb(0,0,0)" stroke-linecap="round" stroke-linejoin="round" stroke-width="1.5" transform="matrix(1,0,0,-1,0,1260)"/>
 <path d="M1111.42,1057.2 l64.58,-224" fill="none" stroke="rgb(0,0,0)" stroke-linecap="round" stroke-linejoin="round" stroke-width="1.5" transform="matrix(1,0,0,-1,0,1260)"/>
 <path d="M1274.74,630 l4.61,0 l0,98.8 l-4.61,-4 Z M1274.74,630" fill="rgb(0,0,0)" fill-opacity="0.5" stroke-linecap="round" stroke-linejoin="round" transform="matrix(1,0,0,-1,0,1260)"/>
 <path d="M1224,376 l0,508" fill="none" stroke="rgb(0,0,0)" stroke-linecap="round" stroke-linejoin="round" stroke-width="1.5" transform="matrix(1,0,0,-1,0,1260)"/>
 <path d="M1224,884 l64.58,280" fill="none" stroke="rgb(0,0,0)" stroke-linecap="round" stroke-linejoin="round" stroke-width="1.5" transform="matrix(1,0,0,-1,0,1260)"/>
 <path d="M1288.58,1164 l0,-1068" fill="none" stroke="rgb(0,0,0)" stroke-linecap="round" stroke-linejoin="round" stroke-width="1.5" transform="matrix(1,0,0,-1,0,1260)"/>
 <path d="M1288.58,96 l-64.58,280" fill="none" stroke="rgb(0,0,0)" stroke-linecap="round" stroke-linejoin="round" stroke-width="1.5" transform="matrix(1,0,0,-1,0,1260)"/>
 <path d="M1228.61,356 l0,548" fill="none" stroke="rgb(0,0,0)" stroke-linecap="round" stroke-linejoin="round" stroke-width="1.5" transform="matrix(1,0,0,-1,0,1260)"/>
 <path d="M1233.23,336 l0,588" fill="none" stroke="rgb(0,0,0)" stroke-linecap="round" stroke-linejoin="round" stroke-width="1.5" transform="matrix(1,0,0,-1,0,1260)"/>
 <path d="M1237.84,316 l0,628" fill="none" stroke="rgb(0,0,0)" stroke-linecap="round" stroke-linejoin="round" stroke-width="1.5" transform="matrix(1,0,0,-1,0,1260)"/>
 <path d="M1242.45,296 l0,668" fill="none" stroke="rgb(0,0,0)" stroke-linecap="round" stroke-linejoin="round" stroke-width="1.5" transform="matrix(1,0,0,-1,0,1260)"/>
 <path d="M1247.06,276 l0,708" fill="none" stroke="rgb(0,0,0)" stroke-linecap="round" stroke-linejoin="round" stroke-width="1.5" transform="matrix(1,0,0,-1,0,1260)"/>
 <path d="M1251.68,256 l0,748" fill="none" stroke="rgb(0,0,0)" stroke-linecap="round" stroke-linejoin="round" stroke-width="1.5" transform="matrix(1,0,0,-1,0,1260)"/>
 <path d="M1256.29,236 l0,788" fill="none" stroke="rgb(0,0,0)" stroke-linecap="round" stroke-linejoin="round" stroke-width="1.5" transform="matrix(1,0,0,-1,0,1260)"/>
 <path d="M1260.9,216 l0,828" fill="none" stroke="rgb(0,0,0)" stroke-linecap="round" stroke-linejoin="round" stroke-width="1.5" transform="matrix(1,0,0,-1,0,1260)"/>
 <path d="M1265.52,196 l0,868" fill="none" stroke="rgb(0,0,0)" stroke-linecap="round" stroke-linejoin="round" stroke-width="1.5" transform="matrix(1,0,0,-1,0,1260)"/>
 <path d="M1270.13,176 l0,908" fill="none" stroke="rgb(0,0,0)" stroke-linecap="round" stroke-linejoin="round" stroke-width="1.5" transform="matrix(1,0,0,-1,0,1260)"/>
 <path d="M1274.74,156 l0,948" fill="none" stroke="rgb(0,0,0)" stroke-linecap="round" stroke-linejoin="round" stroke-width="1.5" transform="matrix(1,0,0,-1,0,1260)"/>
 <path d="M1279.36,136 l0,988" fill="none" stroke="rgb(0,0,0)" stroke-linecap="round" stroke-linejoin="round" stroke-width="1.5" transform="matrix(1,0,0,-1,0,1260)"/>
 <path d="M1283.97,116 l0,1028" fill="none" stroke="rgb(0,0,0)" stroke-linecap="round" stroke-linejoin="round" stroke-width="1.5" transform="matrix(1,0,0,-1,0,1260)"/>
 <path d="M1224,426.8 l64.58,-224" fill="none" stroke="rgb(0,0,0)" stroke-linecap="round" stroke-linejoin="round" stroke-width="1.5" transform="matrix(1,0,0,-1,0,1260)"/>
 <path d="M1224,477.6 l64.58,-168" fill="none" stroke="rgb(0,0,0)" stroke-linecap="round" stroke-linejoin="round" stroke-width="1.5" transform="matrix(1,0,0,-1,0,1260)"/>
 <path d="M1224,528.4 l64.58,-112" fill="none" stroke="rgb(0,0,0)" stroke-linecap="round" stroke-linejoin="round" stroke-width="1.5" transform="matrix(1,0,0,-1,0,1260)"/>
 <path d="M1224,579.2 l64.58,-56" fill="none" stroke="rgb(0,0,0)" stroke-linecap="round" stroke-linejoin="round" stroke-width="1.5" transform="matrix(1,0,0,-1,0,1260)"/>
 <path d="M1224,630 l64.58,0" fill="none" stroke="rgb(0,0,0)" stroke-linecap="round" stroke-linejoin="round" stroke-width="1.5" transform="matrix(1,0,0,-1,0,1260)"/>
 <path d="M1224,680.8 l64.58,56" fill="none" stroke="rgb(0,0,0)" stroke-linecap="round" stroke-linejoin="round" stroke-width="1.5" transform="matrix(1,0,0,-1,0,1260)"/>
 <path d="M1224,731.6 l64.58,112" fill="none" stroke="rgb(0,0,0)" stroke-linecap="round" stroke-linejoin="round" stroke-width="1.5" transform="matrix(1,0,0,-1,0,1260)"/>
 <path d="M1224,782.4 l64.58,168" fill="none" stroke="rgb(0,0,0)" stroke-linecap="round" stroke-linejoin="round" stroke-width="1.5" transform="matrix(1,0,0,-1,0,1260)"/>
 <path d="M1224,833.2 l64.58,224" fill="none" stroke="rgb(0,0,0)" stroke-linecap="round" stroke-linejoin="round" stroke-width="1.5" transform="matrix(1,0,0,-1,0,1260)"/>
 <path d="M1353.88,453.6 l8.65,-12 l0,62.8 l-8.65,8 Z M1353.88,453.6" fill="rgb(0,0,0)" fill-opacity="0.5" stroke-linecap="round" stroke-linejoin="round" transform="matrix(1,0,0,-1,0,1260)"/>
 <path d="M1336.58,376 l0,508" fill="none" stroke="rgb(0,0,0)" stroke-linecap="round" stroke-linejoin="round" stroke-width="1.5" transform="matrix(1,0,0,-1,0,1260)"/>
 <path d="M1336.58,884 l121.09,280" fill="none" stroke="rgb(0,0,0)" stroke-linecap="round" stroke-linejoin="round" stroke-width="1.5" transform="matrix(1,0,0,-1,0,1260)"/>
 <path d="M1457.67,1164 l0,-1068" fill="none" stroke="rgb(0,0,0)" stroke-linecap="round" stroke-linejoin="round" stroke-width="1.5" transform="matrix(1,0,0,-1,0,1260)"/>
 <path d="M1457.67,96 l-121.09,280" fill="none" stroke="rgb(0,0,0)" stroke-linecap="round" stroke-linejoin="round" stroke-width="1.5" transform="matrix(1,0,0,-1,0,1260)"/>
 <path d="M1345.23,356 l0,548" fill="none" stroke="rgb(0,0,0)" stroke-linecap="round" stroke-linejoin="round" stroke-width="1.5" transform="matrix(1,0,0,-1,0,1260)"/>
 <path d="M1353.88,336 l0,588" fill="none" stroke="rgb(0,0,0)" stroke-linecap="round" stroke-linejoin="round" stroke-width="1.5" transform="matrix(1,0,0,-1,0,1260)"/>
 <path d="M1362.53,316 l0,628" fill="none" stroke="rgb(0,0,0)" stroke-linecap="round" stroke-linejoin="round" stroke-width="1.5" transform="matrix(1,0,0,-1,0,1260)"/>
 <path d="M1371.18,296 l0,668" fill="none" stroke="rgb(0,0,0)" stroke-linecap="round" stroke-linejoin="round" stroke-width="1.5" transform="matrix(1,0,0,-1,0,1260)"/>
 <path d="M1379.83,276 l0,708" fill="none" stroke="rgb(0,0,0)" stroke-linecap="round" stroke-linejoin="round" stroke-width="1.5" transform="matrix(1,0,0,-1,0,1260)"/>
 <path d="M1388.48,256 l0,748" fill="none" stroke="rgb(0,0,0)" stroke-linecap="round" stroke-linejoin="round" stroke-width="1.5" transform="matrix(1,0,0,-1,0,1260)"/>
 <path d="M1397.13,236 l0,788" fill="none" stroke="rgb(0,0,0)" stroke-linecap="round" stroke-linejoin="round" stroke-width="1.5" transform="matrix(1,0,0,-1,0,1260)"/>
 <path d="M1405.78,216 l0,828" fill="none" stroke="rgb(0,0,0)" stroke-linecap="round" stroke-linejoin="round" stroke-width="1.5" transform="matrix(1,0,0,-1,0,1260)"/>
 <path d="M1414.43,196 l0,868" fill="none" stroke="rgb(0,0,0)" stroke-linecap="round" stroke-linejoin="round" stroke-width="1.5" transform="matrix(1,0,0,-1,0,1260)"/>
 <path d="M1423.08,176 l0,908" fill="none" stroke="rgb(0,0,0)" stroke-linecap="round" stroke-linejoin="round" stroke-width="1.5" transform="matrix(1,0,0,-1,0,1260)"/>
 <path d="M1431.72,156 l0,948" fill="none" stroke="rgb(0,0,0)" stroke-linecap="round" stroke-linejoin="round" stroke-width="1.5" transform="matrix(1,0,0,-1,0,1260)"/>
 <path d="M1440.37,136 l0,988" fill="none" stroke="rgb(0,0,0)" stroke-linecap="round" stroke-linejoin="round" stroke-width="1.5" transform="matrix(1,0,0,-1,0,1260)"/>
 <path d="M1449.02,116 l0,1028" fill="none" stroke="rgb(0,0,0)" stroke-linecap="round" stroke-linejoin="round" stroke-width="1.5" transform="matrix(1,0,0,-1,0,1260)"/>
 <path d="M1336.58,426.8 l121.09,-224" fill="none" stroke="rgb(0,0,0)" stroke-linecap="round" stroke-linejoin="round" stroke-width="1.5" transform="matrix(1,0,0,-1,0,1260)"/>
 <path d="M1336.58,477.6 l121.09,-168" fill="none" stroke="rgb(0,0,0)" stroke-linecap="round" stroke-linejoin="round" stroke-width="1.5" transform="matrix(1,0,0,-1,0,1260)"/>
 <path d="M1336.58,528.4 l121.09,-112" fill="none" stroke="rgb(0,0,0)" stroke-linecap="round" stroke-linejoin="round" stroke-width="1.5" transform="matrix(1,0,0,-1,0,1260)"/>
 <path d="M1336.58,579.2 l121.09,-56" fill="none" stroke="rgb(0,0,0)" stroke-linecap="round" stroke-linejoin="round" stroke-width="1.5" transform="matrix(1,0,0,-1,0,1260)"/>
 <path d="M1336.58,630 l121.09,0" fill="none" stroke="rgb(0,0,0)" stroke-linecap="round" stroke-linejoin="round" stroke-width="1.5" transform="matrix(1,0,0,-1,0,1260)"/>
 <path d="M1336.58,680.8 l121.09,56" fill="none" stroke="rgb(0,0,0)" stroke-linecap="round" stroke-linejoin="round" stroke-width="1.5" transform="matrix(1,0,0,-1,0,1260)"/>
 <path d="M1336.58,731.6 l121.09,112" fill="none" stroke="rgb(0,0,0)" stroke-linecap="round" stroke-linejoin="round" stroke-width="1.5" transform="matrix(1,0,0,-1,0,1260)"/>
 <path d="M1336.58,782.4 l121.09,168" fill="none" stroke="rgb(0,0,0)" stroke-linecap="round" stroke-linejoin="round" stroke-width="1.5" transform="matrix(1,0,0,-1,0,1260)"/>
 <path d="M1336.58,833.2 l121.09,224" fill="none" stroke="rgb(0,0,0)" stroke-linecap="round" stroke-linejoin="round" stroke-width="1.5" transform="matrix(1,0,0,-1,0,1260)"/>
 <path d="M1543.73,818.4 l12.69,12.0 l0,66.8 l-12.69,-16 Z M1543.73,818.4" fill="rgb(0,0,0)" fill-opacity="0.5" stroke-linecap="round" stroke-linejoin="round" transform="matrix(1,0,0,-1,0,1260)"/>
 <path d="M1505.67,376 l0,508" fill="none" stroke="rgb(0,0,0)" stroke-linecap="round" stroke-linejoin="round" stroke-width="1.5" transform="matrix(1,0,0,-1,0,1260)"/>
 <path d="M1505.67,884 l177.6,280" fill="none" stroke="rgb(0,0,0)" stroke-linecap="round" stroke-linejoin="round" stroke-width="1.5" transform="matrix(1,0,0,-1,0,1260)"/>
 <path d="M1683.27,1164 l0,-1068" fill="none" stroke="rgb(0,0,0)" stroke-linecap="round" stroke-linejoin="round" stroke-width="1.5" transform="matrix(1,0,0,-1,0,1260)"/>
 <path d="M1683.27,96 l-177.6,280" fill="none" stroke="rgb(0,0,0)" stroke-linecap="round" stroke-linejoin="round" stroke-width="1.5" transform="matrix(1,0,0,-1,0,1260)"/>
 <path d="M1518.36,356 l0,548" fill="none" stroke="rgb(0,0,0)" stroke-linecap="round" stroke-linejoin="round" stroke-width="1.5" transform="matrix(1,0,0,-1,0,1260)"/>
 <path d="M1531.04,336 l0,588" fill="none" stroke="rgb(0,0,0)" stroke-linecap="round" stroke-linejoin="round" stroke-width="1.5" transform="matrix(1,0,0,-1,0,1260)"/>
 <path d="M1543.73,316 l0,628" fill="none" stroke="rgb(0,0,0)" stroke-linecap="round" stroke-linejoin="round" stroke-width="1.5" transform="matrix(1,0,0,-1,0,1260)"/>
 <path d="M1556.42,296 l0,668" fill="none" stroke="rgb(0,0,0)" stroke-linecap="round" stroke-linejoin="round" stroke-width="1.5" transform="matrix(1,0,0,-1,0,1260)"/>
 <path d="M1569.1,276 l0,708" fill="none" stroke="rgb(0,0,0)" stroke-linecap="round" stroke-linejoin="round" stroke-width="1.5" transform="matrix(1,0,0,-1,0,1260)"/>
 <path d="M1581.79,256 l0,748" fill="none" stroke="rgb(0,0,0)" stroke-linecap="round" stroke-linejoin="round" stroke-width="1.5" transform="matrix(1,0,0,-1,0,1260)"/>
 <path d="M1594.47,236 l0,788" fill="none" stroke="rgb(0,0,0)" stroke-linecap="round" stroke-linejoin="round" stroke-width="1.5" transform="matrix(1,0,0,-1,0,1260)"/>
 <path d="M1607.16,216 l0,828" fill="none" stroke="rgb(0,0,0)" stroke-linecap="round" stroke-linejoin="round" stroke-width="1.5" transform="matrix(1,0,0,-1,0,1260)"/>
 <path d="M1619.84,196 l0,868" fill="none" stroke="rgb(0,0,0)" stroke-linecap="round" stroke-linejoin="round" stroke-width="1.5" transform="matrix(1,0,0,-1,0,1260)"/>
 <path d="M1632.53,176 l0,908" fill="none" stroke="rgb(0,0,0)" stroke-linecap="round" stroke-linejoin="round" stroke-width="1.5" transform="matrix(1,0,0,-1,0,1260)"/>
 <path d="M1645.22,156 l0,948" fill="none" stroke="rgb(0,0,0)" stroke-linecap="round" stroke-linejoin="round" stroke-width="1.5" transform="matrix(1,0,0,-1,0,1260)"/>
 <path d="M1657.9,136 l0,988" fill="none" stroke="rgb(0,0,0)" stroke-linecap="round" stroke-linejoin="round" stroke-width="1.5" transform="matrix(1,0,0,-1,0,1260)"/>
 <path d="M1670.59,116 l0,1028" fill="none" stroke="rgb(0,0,0)" stroke-linecap="round" stroke-linejoin="round" stroke-width="1.5" transform="matrix(1,0,0,-1,0,1260)"/>
 <path d="M1505.67,426.8 l177.6,-224" fill="none" stroke="rgb(0,0,0)" stroke-linecap="round" stroke-linejoin="round" stroke-width="1.5" transform="matrix(1,0,0,-1,0,1260)"/>
 <path d="M1505.67,477.6 l177.6,-168" fill="none" stroke="rgb(0,0,0)" stroke-linecap="round" stroke-linejoin="round" stroke-width="1.5" transform="matrix(1,0,0,-1,0,1260)"/>
 <path d="M1505.67,528.4 l177.6,-112" fill="none" stroke="rgb(0,0,0)" stroke-linecap="round" stroke-linejoin="round" stroke-width="1.5" transform="matrix(1,0,0,-1,0,1260)"/>
 <path d="M1505.67,579.2 l177.6,-56" fill="none" stroke="rgb(0,0,0)" stroke-linecap="round" stroke-linejoin="round" stroke-width="1.5" transform="matrix(1,0,0,-1,0,1260)"/>
 <path d="M1505.67,630 l177.6,0" fill="none" stroke="rgb(0,0,0)" stroke-linecap="round" stroke-linejoin="round" stroke-width="1.5" transform="matrix(1,0,0,-1,0,1260)"/>
 <path d="M1505.67,680.8 l177.6,56" fill="none" stroke="rgb(0,0,0)" stroke-linecap="round" stroke-linejoin="round" stroke-width="1.5" transform="matrix(1,0,0,-1,0,1260)"/>
 <path d="M1505.67,731.6 l177.6,112" fill="none" stroke="rgb(0,0,0)" stroke-linecap="round" stroke-linejoin="round" stroke-width="1.5" transform="matrix(1,0,0,-1,0,1260)"/>
 <path d="M1505.67,782.4 l177.6,168" fill="none" stroke="rgb(0,0,0)" stroke-linecap="round" stroke-linejoin="round" stroke-width="1.5" transform="matrix(1,0,0,-1,0,1260)"/>
 <path d="M1505.67,833.2 l177.6,224" fill="none" stroke="rgb(0,0,0)" stroke-linecap="round" stroke-linejoin="round" stroke-width="1.5" transform="matrix(1,0,0,-1,0,1260)"/>
 <path d="M1898.49,448.4 l16.72,-8 l0,94.8 l-16.72,4 Z M1898.49,448.4" fill="rgb(0,0,0)" fill-opacity="0.5" stroke-linecap="round" stroke-linejoin="round" transform="matrix(1,0,0,-1,0,1260)"/>
 <path d="M1731.27,376 l0,508" fill="none" stroke="rgb(0,0,0)" stroke-linecap="round" stroke-linejoin="round" stroke-width="1.5" transform="matrix(1,0,0,-1,0,1260)"/>
 <path d="M1731.27,884 l234.11,280" fill="none" stroke="rgb(0,0,0)" stroke-linecap="round" stroke-linejoin="round" stroke-width="1.5" transform="matrix(1,0,0,-1,0,1260)"/>
 <path d="M1965.38,1164 l0,-1068" fill="none" stroke="rgb(0,0,0)" stroke-linecap="round" stroke-linejoin="round" stroke-width="1.5" transform="matrix(1,0,0,-1,0,1260)"/>
 <path d="M1965.38,96 l-234.11,280" fill="none" stroke="rgb(0,0,0)" stroke-linecap="round" stroke-linejoin="round" stroke-width="1.5" transform="matrix(1,0,0,-1,0,1260)"/>
 <path d="M1747.99,356 l0,548" fill="none" stroke="rgb(0,0,0)" stroke-linecap="round" stroke-linejoin="round" stroke-width="1.5" transform="matrix(1,0,0,-1,0,1260)"/>
 <path d="M1764.72,336 l0,588" fill="none" stroke="rgb(0,0,0)" stroke-linecap="round" stroke-linejoin="round" stroke-width="1.5" transform="matrix(1,0,0,-1,0,1260)"/>
 <path d="M1781.44,316 l0,628" fill="none" stroke="rgb(0,0,0)" stroke-linecap="round" stroke-linejoin="round" stroke-width="1.5" transform="matrix(1,0,0,-1,0,1260)"/>
 <path d="M1798.16,296 l0,668" fill="none" stroke="rgb(0,0,0)" stroke-linecap="round" stroke-linejoin="round" stroke-width="1.5" transform="matrix(1,0,0,-1,0,1260)"/>
 <path d="M1814.88,276 l0,708" fill="none" stroke="rgb(0,0,0)" stroke-linecap="round" stroke-linejoin="round" stroke-width="1.5" transform="matrix(1,0,0,-1,0,1260)"/>
 <path d="M1831.61,256 l0,748" fill="none" stroke="rgb(0,0,0)" stroke-linecap="round" stroke-linejoin="round" stroke-width="1.5" transform="matrix(1,0,0,-1,0,1260)"/>
 <path d="M1848.33,236 l0,788" fill="none" stroke="rgb(0,0,0)" stroke-linecap="round" stroke-linejoin="round" stroke-width="1.5" transform="matrix(1,0,0,-1,0,1260)"/>
 <path d="M1865.05,216 l0,828" fill="none" stroke="rgb(0,0,0)" stroke-linecap="round" stroke-linejoin="round" stroke-width="1.5" transform="matrix(1,0,0,-1,0,1260)"/>
 <path d="M1881.77,196 l0,868" fill="none" stroke="rgb(0,0,0)" stroke-linecap="round" stroke-linejoin="round" stroke-width="1.5" transform="matrix(1,0,0,-1,0,1260)"/>
 <path d="M1898.49,176 l0,908" fill="none" stroke="rgb(0,0,0)" stroke-linecap="round" stroke-linejoin="round" stroke-width="1.5" transform="matrix(1,0,0,-1,0,1260)"/>
 <path d="M1915.22,156 l0,948" fill="none" stroke="rgb(0,0,0)" stroke-linecap="round" stroke-linejoin="round" stroke-width="1.5" transform="matrix(1,0,0,-1,0,1260)"/>
 <path d="M1931.94,136 l0,988" fill="none" stroke="rgb(0,0,0)" stroke-linecap="round" stroke-linejoin="round" stroke-width="1.5" transform="matrix(1,0,0,-1,0,1260)"/>
 <path d="M1948.66,116 l0,1028" fill="none" stroke="rgb(0,0,0)" stroke-linecap="round" stroke-linejoin="round" stroke-width="1.5" transform="matrix(1,0,0,-1,0,1260)"/>
 <path d="M1731.27,426.8 l234.11,-224" fill="none" stroke="rgb(0,0,0)" stroke-linecap="round" stroke-linejoin="round" stroke-width="1.5" transform="matrix(1,0,0,-1,0,1260)"/>
 <path d="M1731.27,477.6 l234.11,-168" fill="none" stroke="rgb(0,0,0)" stroke-linecap="round" stroke-linejoin="round" stroke-width="1.5" transform="matrix(1,0,0,-1,0,1260)"/>
 <path d="M1731.27,528.4 l234.11,-112" fill="none" stroke="rgb(0,0,0)" stroke-linecap="round" stroke-linejoin="round" stroke-width="1.5" transform="matrix(1,0,0,-1,0,1260)"/>
 <path d="M1731.27,579.2 l234.11,-56" fill="none" stroke="rgb(0,0,0)" stroke-linecap="round" stroke-linejoin="round" stroke-width="1.5" transform="matrix(1,0,0,-1,0,1260)"/>
 <path d="M1731.27,630 l234.11,0" fill="none" stroke="rgb(0,0,0)" stroke-linecap="round" stroke-linejoin="round" stroke-width="1.5" transform="matrix(1,0,0,-1,0,1260)"/>
 <path d="M1731.27,680.8 l234.11,56" fill="none" stroke="rgb(0,0,0)" stroke-linecap="round" stroke-linejoin="round" stroke-width="1.5" transform="matrix(1,0,0,-1,0,1260)"/>
 <path d="M1731.27,731.6 l234.11,112" fill="none" stroke="rgb(0,0,0)" stroke-linecap="round" stroke-linejoin="round" stroke-width="1.5" transform="matrix(1,0,0,-1,0,1260)"/>
 <path d="M1731.27,782.4 l234.11,168" fill="none" stroke="rgb(0,0,0)" stroke-linecap="round" stroke-linejoin="round" stroke-width="1.5" transform="matrix(1,0,0,-1,0,1260)"/>
 <path d="M1731.27,833.2 l234.11,224" fill="none" stroke="rgb(0,0,0)" stroke-linecap="round" stroke-linejoin="round" stroke-width="1.5" transform="matrix(1,0,0,-1,0,1260)"/>
 <path d="M2117.17,559.2 l20.76,-4 l0,74.8 l-20.76,0 Z M2117.17,559.2" fill="rgb(0,0,0)" fill-opacity="0.5" stroke-linecap="round" stroke-linejoin="round" transform="matrix(1,0,0,-1,0,1260)"/>
 <path d="M2013.38,376 l0,508" fill="none" stroke="rgb(0,0,0)" stroke-linecap="round" stroke-linejoin="round" stroke-width="1.5" transform="matrix(1,0,0,-1,0,1260)"/>
 <path d="M2013.38,884 l290.62,280" fill="none" stroke="rgb(0,0,0)" stroke-linecap="round" stroke-linejoin="round" stroke-width="1.5" transform="matrix(1,0,0,-1,0,1260)"/>
 <path d="M2304.0,1164 l0,-1068" fill="none" stroke="rgb(0,0,0)" stroke-linecap="round" stroke-linejoin="round" stroke-width="1.5" transform="matrix(1,0,0,-1,0,1260)"/>
 <path d="M2304.0,96 l-290.62,280" fill="none" stroke="rgb(0,0,0)" stroke-linecap="round" stroke-linejoin="round" stroke-width="1.5" transform="matrix(1,0,0,-1,0,1260)"/>
 <path d="M2034.14,356 l0,548" fill="none" stroke="rgb(0,0,0)" stroke-linecap="round" stroke-linejoin="round" stroke-width="1.5" transform="matrix(1,0,0,-1,0,1260)"/>
 <path d="M2054.9,336 l0,588" fill="none" stroke="rgb(0,0,0)" stroke-linecap="round" stroke-linejoin="round" stroke-width="1.5" transform="matrix(1,0,0,-1,0,1260)"/>
 <path d="M2075.66,316 l0,628" fill="none" stroke="rgb(0,0,0)" stroke-linecap="round" stroke-linejoin="round" stroke-width="1.5" transform="matrix(1,0,0,-1,0,1260)"/>
 <path d="M2096.42,296 l0,668" fill="none" stroke="rgb(0,0,0)" stroke-linecap="round" stroke-linejoin="round" stroke-width="1.5" transform="matrix(1,0,0,-1,0,1260)"/>
 <path d="M2117.17,276 l0,708" fill="none" stroke="rgb(0,0,0)" stroke-linecap="round" stroke-linejoin="round" stroke-width="1.5" transform="matrix(1,0,0,-1,0,1260)"/>
 <path d="M2137.93,256 l0,748" fill="none" stroke="rgb(0,0,0)" stroke-linecap="round" stroke-linejoin="round" stroke-width="1.5" transform="matrix(1,0,0,-1,0,1260)"/>
 <path d="M2158.69,236 l0,788" fill="none" stroke="rgb(0,0,0)" stroke-linecap="round" stroke-linejoin="round" stroke-width="1.5" transform="matrix(1,0,0,-1,0,1260)"/>
 <path d="M2179.45,216 l0,828" fill="none" stroke="rgb(0,0,0)" stroke-linecap="round" stroke-linejoin="round" stroke-width="1.5" transform="matrix(1,0,0,-1,0,1260)"/>
 <path d="M2200.21,196 l0,868" fill="none" stroke="rgb(0,0,0)" stroke-linecap="round" stroke-linejoin="round" stroke-width="1.5" transform="matrix(1,0,0,-1,0,1260)"/>
 <path d="M2220.97,176 l0,908" fill="none" stroke="rgb(0,0,0)" stroke-linecap="round" stroke-linejoin="round" stroke-width="1.5" transform="matrix(1,0,0,-1,0,1260)"/>
 <path d="M2241.72,156 l0,948" fill="none" stroke="rgb(0,0,0)" stroke-linecap="round" stroke-linejoin="round" stroke-width="1.5" transform="matrix(1,0,0,-1,0,1260)"/>
 <path d="M2262.48,136 l0,988" fill="none" stroke="rgb(0,0,0)" stroke-linecap="round" stroke-linejoin="round" stroke-width="1.5" transform="matrix(1,0,0,-1,0,1260)"/>
 <path d="M2283.24,116 l0,1028" fill="none" stroke="rgb(0,0,0)" stroke-linecap="round" stroke-linejoin="round" stroke-width="1.5" transform="matrix(1,0,0,-1,0,1260)"/>
 <path d="M2013.38,426.8 l290.62,-224" fill="none" stroke="rgb(0,0,0)" stroke-linecap="round" stroke-linejoin="round" stroke-width="1.5" transform="matrix(1,0,0,-1,0,1260)"/>
 <path d="M2013.38,477.6 l290.62,-168" fill="none" stroke="rgb(0,0,0)" stroke-linecap="round" stroke-linejoin="round" stroke-width="1.5" transform="matrix(1,0,0,-1,0,1260)"/>
 <path d="M2013.38,528.4 l290.62,-112" fill="none" stroke="rgb(0,0,0)" stroke-linecap="round" stroke-linejoin="round" stroke-width="1.5" transform="matrix(1,0,0,-1,0,1260)"/>
 <path d="M2013.38,579.2 l290.62,-56" fill="none" stroke="rgb(0,0,0)" stroke-linecap="round" stroke-linejoin="round" stroke-width="1.5" transform="matrix(1,0,0,-1,0,1260)"/>
 <path d="M2013.38,630 l290.62,0" fill="none" stroke="rgb(0,0,0)" stroke-linecap="round" stroke-linejoin="round" stroke-width="1.5" transform="matrix(1,0,0,-1,0,1260)"/>
 <path d="M2013.38,680.8 l290.62,56" fill="none" stroke="rgb(0,0,0)" stroke-linecap="round" stroke-linejoin="round" stroke-width="1.5" transform="matrix(1,0,0,-1,0,1260)"/>
 <path d="M2013.38,731.6 l290.62,112" fill="none" stroke="rgb(0,0,0)" stroke-linecap="round" stroke-linejoin="round" stroke-width="1.5" transform="matrix(1,0,0,-1,0,1260)"/>
 <path d="M2013.38,782.4 l290.62,168" fill="none" stroke="rgb(0,0,0)" stroke-linecap="round" stroke-linejoin="round" stroke-width="1.5" transform="matrix(1,0,0,-1,0,1260)"/>
 <path d="M2013.38,833.2 l290.62,224" fill="none" stroke="rgb(0,0,0)" stroke-linecap="round" stroke-linejoin="round" stroke-width="1.5" transform="matrix(1,0,0,-1,0,1260)"/>
</svg>