<?xml version="1.0" encoding="UTF-8"?>
<svg width="2400" height="1260" viewBox="0 0 2400 1260" version="1.1" xmlns="http://www.w3.org/2000/svg" xmlns:xlink="http://www.w3.org/1999/xlink">
 <path d="M0,0 l2400,0 l0,1260 l-2400,0 Z" fill="rgb(240,239,235)" transform="matrix(1,0,0,-1,0,1260)"/>
 <path d="M50.62,108.22 l0,1043.56" fill="none" stroke="rgb(84,71,1)" stroke-linecap="round" stroke-linejoin="round" stroke-width="2.5" transform="matrix(1,0,0,-1,0,1260)"/>
 <path d="M97.9,118.73 l0,1022.55" fill="none" stroke="rgb(84,71,1)" stroke-linecap="round" stroke-linejoin="round" stroke-width="2.5" transform="matrix(1,0,0,-1,0,1260)"/>
 <path d="M140.08,128.1 l0,1003.8" fill="none" stroke="rgb(84,71,1)" stroke-linecap="round" stroke-linejoin="round" stroke-width="2.5" transform="matrix(1,0,0,-1,0,1260)"/>
 <path d="M180.53,137.09 l0,985.83" fill="none" stroke="rgb(84,71,1)" stroke-linecap="round" stroke-linejoin="round" stroke-width="2.5" transform="matrix(1,0,0,-1,0,1260)"/>
 <path d="M219.89,145.83 l0,968.33" fill="none" stroke="rgb(84,71,1)" stroke-linecap="round" stroke-linejoin="round" stroke-width="2.5" transform="matrix(1,0,0,-1,0,1260)"/>
 <path d="M258.46,154.4 l0,951.19" fill="none" stroke="rgb(84,71,1)" stroke-linecap="round" stroke-linejoin="round" stroke-width="2.5" transform="matrix(1,0,0,-1,0,1260)"/>
 <path d="M296.41,162.84 l0,934.32" fill="none" stroke="rgb(84,71,1)" stroke-linecap="round" stroke-linejoin="round" stroke-width="2.5" transform="matrix(1,0,0,-1,0,1260)"/>
 <path d="M333.86,171.16 l0,917.68" fill="none" stroke="rgb(84,71,1)" stroke-linecap="round" stroke-linejoin="round" stroke-width="2.5" transform="matrix(1,0,0,-1,0,1260)"/>
 <path d="M370.89,179.39 l0,901.23" fill="none" stroke="rgb(84,71,1)" stroke-linecap="round" stroke-linejoin="round" stroke-width="2.5" transform="matrix(1,0,0,-1,0,1260)"/>
 <path d="M407.54,187.53 l0,884.94" fill="none" stroke="rgb(84,71,1)" stroke-linecap="round" stroke-linejoin="round" stroke-width="2.5" transform="matrix(1,0,0,-1,0,1260)"/>
 <path d="M443.87,195.6 l0,868.79" fill="none" stroke="rgb(84,71,1)" stroke-linecap="round" stroke-linejoin="round" stroke-width="2.5" transform="matrix(1,0,0,-1,0,1260)"/>
 <path d="M479.91,203.61 l0,852.77" fill="none" stroke="rgb(84,71,1)" stroke-linecap="round" stroke-linejoin="round" stroke-width="2.5" transform="matrix(1,0,0,-1,0,1260)"/>
 <path d="M515.69,211.56 l0,836.87" fill="none" stroke="rgb(84,71,1)" stroke-linecap="round" stroke-linejoin="round" stroke-width="2.5" transform="matrix(1,0,0,-1,0,1260)"/>
 <path d="M551.23,219.46 l0,821.08" fill="none" stroke="rgb(84,71,1)" stroke-linecap="round" stroke-linejoin="round" stroke-width="2.5" transform="matrix(1,0,0,-1,0,1260)"/>
 <path d="M586.55,227.31 l0,805.38" fill="none" stroke="rgb(84,71,1)" stroke-linecap="round" stroke-linejoin="round" stroke-width="2.5" transform="matrix(1,0,0,-1,0,1260)"/>
 <path d="M621.67,235.11 l0,789.77" fill="none" stroke="rgb(84,71,1)" stroke-linecap="round" stroke-linejoin="round" stroke-width="2.5" transform="matrix(1,0,0,-1,0,1260)"/>
 <path d="M656.6,242.88 l0,774.25" fill="none" stroke="rgb(84,71,1)" stroke-linecap="round" stroke-linejoin="round" stroke-width="2.5" transform="matrix(1,0,0,-1,0,1260)"/>
 <path d="M691.36,250.6 l0,758.8" fill="none" stroke="rgb(84,71,1)" stroke-linecap="round" stroke-linejoin="round" stroke-width="2.5" transform="matrix(1,0,0,-1,0,1260)"/>
 <path d="M725.95,258.29 l0,743.43" fill="none" stroke="rgb(84,71,1)" stroke-linecap="round" stroke-linejoin="round" stroke-width="2.5" transform="matrix(1,0,0,-1,0,1260)"/>
 <path d="M760.39,265.94 l0,728.12" fill="none" stroke="rgb(84,71,1)" stroke-linecap="round" stroke-linejoin="round" stroke-width="2.5" transform="matrix(1,0,0,-1,0,1260)"/>
 <path d="M794.69,273.56 l0,712.88" fill="none" stroke="rgb(84,71,1)" stroke-linecap="round" stroke-linejoin="round" stroke-width="2.5" transform="matrix(1,0,0,-1,0,1260)"/>
 <path d="M828.85,281.15 l0,697.7" fill="none" stroke="rgb(84,71,1)" stroke-linecap="round" stroke-linejoin="round" stroke-width="2.5" transform="matrix(1,0,0,-1,0,1260)"/>
 <path d="M862.88,288.71 l0,682.57" fill="none" stroke="rgb(84,71,1)" stroke-linecap="round" stroke-linejoin="round" stroke-width="2.5" transform="matrix(1,0,0,-1,0,1260)"/>
 <path d="M896.79,296.25 l0,667.5" fill="none" stroke="rgb(84,71,1)" stroke-linecap="round" stroke-linejoin="round" stroke-width="2.5" transform="matrix(1,0,0,-1,0,1260)"/>
 <path d="M930.57,303.76 l0,652.49" fill="none" stroke="rgb(84,71,1)" stroke-linecap="round" stroke-linejoin="round" stroke-width="2.5" transform="matrix(1,0,0,-1,0,1260)"/>
 <path d="M964.25,311.24 l0,637.52" fill="none" stroke="rgb(84,71,1)" stroke-linecap="round" stroke-linejoin="round" stroke-width="2.5" transform="matrix(1,0,0,-1,0,1260)"/>
 <path d="M997.82,318.7 l0,622.6" fill="none" stroke="rgb(84,71,1)" stroke-linecap="round" stroke-linejoin="round" stroke-width="2.5" transform="matrix(1,0,0,-1,0,1260)"/>
 <path d="M1031.28,326.13 l0,607.73" fill="none" stroke="rgb(84,71,1)" stroke-linecap="round" stroke-linejoin="round" stroke-width="2.5" transform="matrix(1,0,0,-1,0,1260)"/>
 <path d="M1064.65,333.55 l0,592.9" fill="none" stroke="rgb(84,71,1)" stroke-linecap="round" stroke-linejoin="round" stroke-width="2.5" transform="matrix(1,0,0,-1,0,1260)"/>
 <path d="M1097.92,340.94 l0,578.12" fill="none" stroke="rgb(84,71,1)" stroke-linecap="round" stroke-linejoin="round" stroke-width="2.5" transform="matrix(1,0,0,-1,0,1260)"/>
 <path d="M1131.1,348.31 l0,563.37" fill="none" stroke="rgb(84,71,1)" stroke-linecap="round" stroke-linejoin="round" stroke-width="2.5" transform="matrix(1,0,0,-1,0,1260)"/>
 <path d="M1166.19,356.11 l0,547.78" fill="none" stroke="rgb(84,71,1)" stroke-linecap="round" stroke-linejoin="round" stroke-width="2.5" transform="matrix(1,0,0,-1,0,1260)"/>
 <path d="M1200,363.62 l1198.75,-266.38" fill="none" stroke="rgb(245,78,0)" stroke-linecap="round" stroke-linejoin="round" stroke-width="2.5" transform="matrix(1,0,0,-1,0,1260)"/>
 <path d="M1200,384.94 l1198.75,-245.06" fill="none" stroke="rgb(245,78,0)" stroke-linecap="round" stroke-linejoin="round" stroke-width="2.5" transform="matrix(1,0,0,-1,0,1260)"/>
 <path d="M1200,406.25 l1198.75,-223.75" fill="none" stroke="rgb(245,78,0)" stroke-linecap="round" stroke-linejoin="round" stroke-width="2.5" transform="matrix(1,0,0,-1,0,1260)"/>
 <path d="M1200,427.56 l1198.75,-202.44" fill="none" stroke="rgb(245,78,0)" stroke-linecap="round" stroke-linejoin="round" stroke-width="2.5" transform="matrix(1,0,0,-1,0,1260)"/>
 <path d="M1200,448.87 l1198.75,-181.13" fill="none" stroke="rgb(245,78,0)" stroke-linecap="round" stroke-linejoin="round" stroke-width="2.5" transform="matrix(1,0,0,-1,0,1260)"/>
 <path d="M1200,470.18 l1198.75,-159.82" fill="none" stroke="rgb(245,78,0)" stroke-linecap="round" stroke-linejoin="round" stroke-width="2.5" transform="matrix(1,0,0,-1,0,1260)"/>
 <path d="M1200,491.49 l1198.75,-138.51" fill="none" stroke="rgb(245,78,0)" stroke-linecap="round" stroke-linejoin="round" stroke-width="2.5" transform="matrix(1,0,0,-1,0,1260)"/>
 <path d="M1200,512.79 l1198.75,-117.21" fill="none" stroke="rgb(245,78,0)" stroke-linecap="round" stroke-linejoin="round" stroke-width="2.5" transform="matrix(1,0,0,-1,0,1260)"/>
 <path d="M1200,534.11 l1198.75,-95.89" fill="none" stroke="rgb(245,78,0)" stroke-linecap="round" stroke-linejoin="round" stroke-width="2.5" transform="matrix(1,0,0,-1,0,1260)"/>
 <path d="M1200,555.41 l1198.75,-74.59" fill="none" stroke="rgb(245,78,0)" stroke-linecap="round" stroke-linejoin="round" stroke-width="2.5" transform="matrix(1,0,0,-1,0,1260)"/>
 <path d="M1200,576.73 l1198.75,-53.27" fill="none" stroke="rgb(245,78,0)" stroke-linecap="round" stroke-linejoin="round" stroke-width="2.5" transform="matrix(1,0,0,-1,0,1260)"/>
 <path d="M1200,598.03 l1198.75,-31.97" fill="none" stroke="rgb(245,78,0)" stroke-linecap="round" stroke-linejoin="round" stroke-width="2.5" transform="matrix(1,0,0,-1,0,1260)"/>
 <path d="M1200,619.35 l1198.75,-10.65" fill="none" stroke="rgb(245,78,0)" stroke-linecap="round" stroke-linejoin="round" stroke-width="2.5" transform="matrix(1,0,0,-1,0,1260)"/>
 <path d="M1200,640.65 l1198.75,10.65" fill="none" stroke="rgb(245,78,0)" stroke-linecap="round" stroke-linejoin="round" stroke-width="2.5" transform="matrix(1,0,0,-1,0,1260)"/>
 <path d="M1200,661.96 l1198.75,31.96" fill="none" stroke="rgb(245,78,0)" stroke-linecap="round" stroke-linejoin="round" stroke-width="2.5" transform="matrix(1,0,0,-1,0,1260)"/>
 <path d="M1200,683.27 l1198.75,53.27" fill="none" stroke="rgb(245,78,0)" stroke-linecap="round" stroke-linejoin="round" stroke-width="2.5" transform="matrix(1,0,0,-1,0,1260)"/>
 <path d="M1200,704.59 l1198.75,74.59" fill="none" stroke="rgb(245,78,0)" stroke-linecap="round" stroke-linejoin="round" stroke-width="2.5" transform="matrix(1,0,0,-1,0,1260)"/>
 <path d="M1200,725.89 l1198.75,95.89" fill="none" stroke="rgb(245,78,0)" stroke-linecap="round" stroke-linejoin="round" stroke-width="2.5" transform="matrix(1,0,0,-1,0,1260)"/>
 <path d="M1200,747.2 l1198.75,117.2" fill="none" stroke="rgb(245,78,0)" stroke-linecap="round" stroke-linejoin="round" stroke-width="2.5" transform="matrix(1,0,0,-1,0,1260)"/>
 <path d="M1200,768.51 l1198.75,138.51" fill="none" stroke="rgb(245,78,0)" stroke-linecap="round" stroke-linejoin="round" stroke-width="2.5" transform="matrix(1,0,0,-1,0,1260)"/>
 <path d="M1200,789.83 l1198.75,159.83" fill="none" stroke="rgb(245,78,0)" stroke-linecap="round" stroke-linejoin="round" stroke-width="2.5" transform="matrix(1,0,0,-1,0,1260)"/>
 <path d="M1200,811.13 l1198.75,181.13" fill="none" stroke="rgb(245,78,0)" stroke-linecap="round" stroke-linejoin="round" stroke-width="2.5" transform="matrix(1,0,0,-1,0,1260)"/>
 <path d="M1200,832.44 l1198.75,202.44" fill="none" stroke="rgb(245,78,0)" stroke-linecap="round" stroke-linejoin="round" stroke-width="2.5" transform="matrix(1,0,0,-1,0,1260)"/>
 <path d="M1200,853.75 l1198.75,223.75" fill="none" stroke="rgb(245,78,0)" stroke-linecap="round" stroke-linejoin="round" stroke-width="2.5" transform="matrix(1,0,0,-1,0,1260)"/>
 <path d="M1200,875.07 l1198.75,245.07" fill="none" stroke="rgb(245,78,0)" stroke-linecap="round" stroke-linejoin="round" stroke-width="2.5" transform="matrix(1,0,0,-1,0,1260)"/>
 <path d="M1200,896.38 l1198.75,266.38" fill="none" stroke="rgb(245,78,0)" stroke-linecap="round" stroke-linejoin="round" stroke-width="2.5" transform="matrix(1,0,0,-1,0,1260)"/>
</svg>