<?xml version="1.0" encoding="UTF-8"?>
<svg width="2400" height="1050.0" viewBox="0 0 2400 1050.0" version="1.1" xmlns="http://www.w3.org/2000/svg" xmlns:xlink="http://www.w3.org/1999/xlink">
 <path d="M264,96 l618.18,0 l0,858 l-618.18,0 Z" fill="rgb(0,0,0)" fill-opacity="0.04" transform="matrix(1,0,0,-1,0.0,1050.0)"/>
 <path d="M1670.36,96 l633.64,0 l0,858 l-633.64,0 Z" fill="rgb(0,0,0)" fill-opacity="0.04" transform="matrix(1,0,0,-1,0.0,1050.0)"/>
 <path d="M96,96 l2208,0" fill="rgb(0,0,0)" fill-opacity="0.04" stroke="rgb(0,0,0)" stroke-width="3" transform="matrix(1,0,0,-1,0.0,1050.0)"/>
 <path d="M96,382 l2208,0" fill="rgb(0,0,0)" fill-opacity="0.04" stroke="rgb(216,216,216)" stroke-width="3" transform="matrix(1,0,0,-1,0.0,1050.0)"/>
 <path d="M96,668 l2208,0" fill="rgb(0,0,0)" fill-opacity="0.04" stroke="rgb(216,216,216)" stroke-width="3" transform="matrix(1,0,0,-1,0.0,1050.0)"/>
 <path d="M96,954 l2208,0" fill="rgb(0,0,0)" fill-opacity="0.04" stroke="rgb(216,216,216)" stroke-width="3" transform="matrix(1,0,0,-1,0.0,1050.0)"/>
 <path d="M264,96 l0,-10" fill="rgb(0,0,0)" fill-opacity="0.04" stroke="rgb(0,0,0)" stroke-width="3" transform="matrix(1,0,0,-1,0.0,1050.0)"/>
 <path d="M423.7,96 l0,-10" fill="rgb(0,0,0)" fill-opacity="0.04" stroke="rgb(0,0,0)" stroke-width="3" transform="matrix(1,0,0,-1,0.0,1050.0)"/>
 <path d="M567.94,96 l0,-10" fill="rgb(0,0,0)" fill-opacity="0.04" stroke="rgb(0,0,0)" stroke-width="3" transform="matrix(1,0,0,-1,0.0,1050.0)"/>
 <path d="M727.64,96 l0,-10" fill="rgb(0,0,0)" fill-opacity="0.04" stroke="rgb(0,0,0)" stroke-width="3" transform="matrix(1,0,0,-1,0.0,1050.0)"/>
 <path d="M882.18,96 l0,-10" fill="rgb(0,0,0)" fill-opacity="0.04" stroke="rgb(0,0,0)" stroke-width="3" transform="matrix(1,0,0,-1,0.0,1050.0)"/>
 <path d="M1041.88,96 l0,-10" fill="rgb(0,0,0)" fill-opacity="0.04" stroke="rgb(0,0,0)" stroke-width="3" transform="matrix(1,0,0,-1,0.0,1050.0)"/>
 <path d="M1196.42,96 l0,-10" fill="rgb(0,0,0)" fill-opacity="0.04" stroke="rgb(0,0,0)" stroke-width="3" transform="matrix(1,0,0,-1,0.0,1050.0)"/>
 <path d="M1356.12,96 l0,-10" fill="rgb(0,0,0)" fill-opacity="0.04" stroke="rgb(0,0,0)" stroke-width="3" transform="matrix(1,0,0,-1,0.0,1050.0)"/>
 <path d="M1515.82,96 l0,-10" fill="rgb(0,0,0)" fill-opacity="0.04" stroke="rgb(0,0,0)" stroke-width="3" transform="matrix(1,0,0,-1,0.0,1050.0)"/>
 <path d="M1670.36,96 l0,-10" fill="rgb(0,0,0)" fill-opacity="0.04" stroke="rgb(0,0,0)" stroke-width="3" transform="matrix(1,0,0,-1,0.0,1050.0)"/>
 <path d="M1830.06,96 l0,-10" fill="rgb(0,0,0)" fill-opacity="0.04" stroke="rgb(0,0,0)" stroke-width="3" transform="matrix(1,0,0,-1,0.0,1050.0)"/>
 <path d="M1984.61,96 l0,-10" fill="rgb(0,0,0)" fill-opacity="0.04" stroke="rgb(0,0,0)" stroke-width="3" transform="matrix(1,0,0,-1,0.0,1050.0)"/>
 <path d="M2144.3,96 l0,-10" fill="rgb(0,0,0)" fill-opacity="0.04" stroke="rgb(0,0,0)" stroke-width="3" transform="matrix(1,0,0,-1,0.0,1050.0)"/>
 <path d="M2304,96 l0,-10" fill="rgb(0,0,0)" fill-opacity="0.04" stroke="rgb(0,0,0)" stroke-width="3" transform="matrix(1,0,0,-1,0.0,1050.0)"/>
 <path d="M264,215.31 l159.7,-4.47 l144.24,147.95 l159.7,105.65 l154.55,-41.03 l159.7,16.12 l154.55,-0.21 l159.7,24.74 l159.7,12.03 l154.55,72.75 l159.7,54.82 l154.55,89.11 l159.7,143.78 l159.7,180.55" fill="none" stroke="rgb(245,78,0)" stroke-linecap="round" stroke-linejoin="round" stroke-width="6" transform="matrix(1,0,0,-1,0.0,1050.0)"/>
</svg>